# xmcd CD database file
#
# Track frame offsets:
#	150
#	18983
#	29286
#	40812
#	55502
#	69133
#	83564
#	98113
#	110345
#	123577
#	136507
#	149231
#
# Disc length: 2192 seconds
#
# Revision: 0
# Processed by: cddbd v1.5.2PL0 Copyright (c) Steve Scherf et al.
# Submitted via: ACXtractor (MTCDDB.DLL V2003.12.21)
#
DISCID=94088e0c
DTITLE=Pete Smith - Old Boko and Me
DYEAR=2007
DGENRE=Country
TTITLE0=Working Man
TTITLE1=Pick up Man
TTITLE2=Rocky Ned
TTITLE3=Wjhere the Lazy Murray River 
TTITLE4=Bonny Blue Eyes
TTITLE5=Thistles on the Hillside
TTITLE6=Hobnail Express
TTITLE7=Wrap me up in my Stockwhip and blanket
TTITLE8=I'll Be Hanged
TTITLE9=Nulla Nulla Winds
TTITLE10=Old Boko and Me
TTITLE11=Just Saddle Old Darkie
EXTD=ID3G:   2 YEAR: 2007
EXTT0=
EXTT1=
EXTT2=
EXTT3=
EXTT4=
EXTT5=
EXTT6=
EXTT7=
EXTT8=
EXTT9=
EXTT10=
EXTT11=
PLAYORDER=
